<?xml version="1.0" encoding="UTF-8"?>
<svg id="Layer_2" data-name="Layer 2" xmlns="http://www.w3.org/2000/svg" viewBox="0 0 100 38.13">
  <defs>
    <style>
      .cls-1 {
        fill: #fff;
      }

      .cls-2 {
        fill: #ff8200;
      }
    </style>
  </defs>
  <g id="Layer_1-2" data-name="Layer 1">
    <g>
      <rect class="cls-1" y="9.45" width="3.84" height="18.34"/>
      <polygon class="cls-1" points="10.09 8.89 10.09 27.78 13.69 27.78 13.69 20.42 19.22 28.42 24.82 20.42 24.82 27.78 28.42 27.78 28.42 8.89 19.22 22.02 10.09 8.89"/>
      <path class="cls-1" d="M32.27,27.78h4l1.12-2.24h7.53l1.04,2.24h4.08l-8.89-18.89-8.89,18.89ZM39.07,21.86l2.08-4.4,2.08,4.4h-4.16Z"/>
      <path class="cls-1" d="M62.45,12.81c1.68,0,3.04.56,4.16,1.68l2.56-2.56c-1.84-1.84-4.08-2.8-6.73-2.8s-4.8.96-6.65,2.8c-1.84,1.84-2.8,4.08-2.8,6.73s.96,4.8,2.8,6.65c1.84,1.84,4.08,2.8,6.65,2.8s4.88-.96,6.73-2.8l-2.56-2.56c-1.12,1.12-2.48,1.76-4.16,1.76s-2.96-.64-4.08-1.76c-1.12-1.12-1.76-2.48-1.76-4.08,0-1.68.64-3.04,1.76-4.16s2.48-1.68,4.08-1.68Z"/>
      <polygon class="cls-1" points="100 0 98.64 0 92.23 9.85 89.35 9.85 85.7 15.54 82.07 9.85 77.82 9.85 83.54 18.91 76.54 29.86 75.02 29.86 75.02 8.25 90.36 8.25 91.59 6.32 73.02 6.32 73.02 31.79 75.24 31.79 71.19 38.13 72.71 38.13 75.38 33.95 75.42 33.95 75.9 33.15 79.18 28.02 82.07 28.02 85.73 22.31 89.43 28.02 93.68 28.02 87.89 18.93 94.16 9.13 94.72 8.25 96.56 8.25 96.56 29.86 80.86 29.86 79.66 31.79 98.56 31.79 98.56 6.32 95.95 6.32 100 0"/>
    </g>
    <g>
      <polygon class="cls-2" points="76.54 29.86 75.02 29.86 75.02 8.25 90.36 8.25 85.7 15.54 82.07 9.85 77.82 9.85 83.54 18.91 76.54 29.86"/>
      <polygon class="cls-2" points="82.07 28.02 85.73 22.31 89.43 28.02 93.68 28.02 87.89 18.93 94.16 9.13 94.72 8.25 96.56 8.25 96.56 29.86 80.87 29.86 82.07 28.02"/>
    </g>
  </g>
</svg>