<svg width="29" height="39" viewBox="0 0 29 39" fill="none" xmlns="http://www.w3.org/2000/svg">
<path d="M28.9999 0H27.6399L21.2299 9.85H18.3499L14.6999 15.54L11.0699 9.85H6.81994L12.5399 18.91L5.53994 29.86H4.01994V8.25H19.3599L20.5899 6.32H2.01994V31.79H4.23994L0.189941 38.13H1.70994L4.37994 33.95H4.41994L4.89994 33.15L8.17994 28.02H11.0699L14.7299 22.31L18.4299 28.02H22.6799L16.8899 18.93L23.1599 9.13L23.7199 8.25H25.5599V29.86H9.85994L8.65994 31.79H27.5599V6.32H24.9499L28.9999 0Z" fill="#231F20"/>
<path d="M5.54002 29.86H4.02002V8.25H19.36L14.7 15.54L11.07 9.85H6.82002L12.54 18.91L5.54002 29.86Z" fill="#FF8200"/>
<path d="M11.0701 28.02L14.7301 22.31L18.4301 28.02H22.6801L16.8901 18.93L23.1601 9.13L23.7201 8.25H25.5601V29.86H9.87012L11.0701 28.02Z" fill="#FF8200"/>
</svg>
